<?xml version="1.0" standalone="no"?>
<!DOCTYPE svg PUBLIC "-//W3C//DTD SVG 1.1//EN" "http://www.w3.org/Graphics/SVG/1.1/DTD/svg11.dtd" >
<!--
2013-9-30: Created.
-->
<svg>
<metadata>
Created by iconfont
</metadata>
<defs>

<font id="iconfont" horiz-adv-x="1024" >
  <font-face
    font-family="iconfont"
    font-weight="500"
    font-stretch="normal"
    units-per-em="1024"
    ascent="896"
    descent="-128"
  />
    <missing-glyph />
    
    <glyph glyph-name="yinle" unicode="&#58881;" d="M831.5 453.3q-6.3 0.9-11.25 9t-7.65 29.7q-4.5 35.1-22.95 51.75t-57.15 23.85q-40.5 8.1-71.55 32.85t-51.75 46.35q-19.8 18.9-30.6 13.5t-10.8-19.8l0-38.7 0-84.6q0-50.4-0.45-108.9t-0.45-110.7l0-91.8 0-51.3q0.9-21.6-6.75-48.15t-28.8-49.95-56.25-40.05-87.3-19.35q-53.1-2.7-95.85 18.9t-66.15 54.45-22.95 72 33.75 73.35 72 47.7 74.7 14.85 64.35-4.95 41.85-11.7l0 254.7q0 106.2 0.9 239.4 0 26.1 13.5 42.75t36 19.35q18.9 2.7 31.05-7.65t24.75-28.8 31.05-41.85 49.95-45.9q27-20.7 47.25-29.7t37.8-16.65 34.65-18.45 37.8-35.1q20.7-23.4 25.2-48.6t0.45-45.9-13.05-33.75-15.3-12.15z"  horiz-adv-x="1024" />

    
    <glyph glyph-name="twitter" unicode="&#59601;" d="M994.78555556 658.96444445c-35.31-15.66-73.29-26.25-113.13-31.02 40.65 24.39 71.88 62.97 86.61 108.96-38.07-22.56-80.22-38.97-125.07-47.79-35.94 38.28-87.12 62.19-143.76 62.19-108.78 0-196.95-88.17-196.95-196.95 0-15.45 1.74-30.48 5.1-44.88-163.68 8.22-308.82 86.64-405.96 205.8-16.95-29.1-26.67-62.91-26.67-99.03 0-68.34 34.77-128.61 87.63-163.95-32.28 1.02-62.64 9.87-89.22 24.63-0.03-0.81-0.03-1.65-0.03-2.49 0-95.43 67.89-175.02 157.98-193.11-16.53-4.5-33.93-6.9-51.9-6.9-12.69 0-25.02 1.23-37.05 3.54 25.05-78.24 97.8-135.18 183.99-136.77-67.41-52.83-152.34-84.3-244.62-84.3-15.9 0-31.56 0.93-46.98 2.76 87.15-55.89 190.68-88.5 301.92-88.5 362.28 0 560.37 300.12 560.37 560.4 0 8.55-0.18 17.04-0.57 25.47 38.49 27.78 71.88 62.46 98.28 101.94z"  horiz-adv-x="1025" />

    
    <glyph glyph-name="right" unicode="&#59027;" d="M257.042739-70.352216l453.861208 453.923148L257.042739 837.311257c-13.112208 13.175147-13.112208 34.591252 0 47.762403 13.237086 13.237086 34.591252 13.237086 47.828338 0l477.650998-477.649999c13.235088-13.237086 13.235088-34.528314 0-47.699464l-477.650998-477.842811c-13.237086-13.175147-34.591252-13.175147-47.828338 0C243.930532-104.81858999999997 243.930532-83.52636399999994 257.042739-70.352216z"  horiz-adv-x="1024" />

    
    <glyph glyph-name="menu-outline" unicode="&#58906;" d="M80.161203-8.658960999999977l0 74.565253 894.800429 0 0-74.565253L80.161203-8.658960999999977 80.161203-8.658960999999977zM80.161203 438.716182l894.800429 0 0-74.573439L80.161203 364.142743 80.161203 438.716182 80.161203 438.716182zM274.032702 811.553703l700.92893 0 0-74.573439L274.032702 736.980263 274.032702 811.553703 274.032702 811.553703zM199.481775 736.980263L80.161203 736.980263 80.161203 811.553703l119.321596 0L199.482799 736.980263 199.481775 736.980263z"  horiz-adv-x="1024" />

    
    <glyph glyph-name="iconfontradiobox" unicode="&#58912;" d="M512 830.016611c-245.919634 0-446.016611-200.095256-446.016611-446.016611 0-245.952318 200.064292-446.016611 446.016611-446.016611S958.016611 138.047682 958.016611 384C958.016611 629.919634 757.952318 830.016611 512 830.016611zM512 1.983389c-210.655557 0-382.016611 171.392017-382.016611 382.016611 0 210.655557 171.359333 382.016611 382.016611 382.016611 210.624593 0 382.016611-171.359333 382.016611-382.016611C894.016611 173.375407 722.624593 1.983389 512 1.983389zM512 543.99914c-88.223841 0-160.00086-71.775299-160.00086-159.99914s71.775299-160.00086 160.00086-160.00086 160.00086 71.775299 160.00086 160.00086S600.223841 543.99914 512 543.99914z"  horiz-adv-x="1024" />

    
    <glyph glyph-name="weixin" unicode="&#58973;" d="M693.12 506.10133334c11.776 0 23.36-0.896 35.008-2.176C696.768 649.97333334 540.672 758.45333334 362.432 758.45333334 163.2 758.45333334 0 622.7093333400001 0 450.22933334c0-99.521 54.272-181.248 145.024-244.736L108.8 96.50133333999997l126.72 63.488c45.312-8.896 81.664-18.112 126.912-18.112 11.393 0 22.656 0.513 33.792 1.345-7.04 24.256-11.199 49.6-11.199 76.031C385.088 377.58933334000005 521.024 506.10133334 693.12 506.10133334zM498.304 604.34133334c27.393 0 45.376-17.984 45.376-45.248 0-27.136-17.983-45.312-45.376-45.312-27.071 0-54.336 18.176-54.336 45.312C443.968 586.42133334 471.168 604.34133334 498.304 604.34133334zM244.672 513.78133334c-27.2 0-54.592 18.176-54.592 45.312 0 27.264 27.392 45.248 54.592 45.248 27.2 0 45.248-17.92 45.248-45.248C289.92 531.95733334 271.872 513.78133334 244.672 513.78133334zM1024 223.60533334000002c0 144.896-145.023 262.976-307.904 262.976-172.479 0-308.224-118.144-308.224-262.976 0-145.28 135.808-262.977 308.224-262.977 36.097 0 72.513 9.024 108.736 18.112l99.392-54.528-27.264 90.624C969.729 69.49333334000005 1024 141.87733333999995 1024 223.60533334000002zM616.128 268.98133334c-17.984 0-36.224 17.92-36.224 36.224 0 18.048 18.239 36.225 36.224 36.225 27.521 0 45.376-18.177 45.376-36.225C661.504 286.90133333999995 643.648 268.98133334 616.128 268.98133334zM815.488 268.98133334c-17.856 0-36.032 17.92-36.032 36.224 0 18.048 18.112 36.225 36.032 36.225 27.264 0 45.376-18.177 45.376-36.225C860.864 286.90133333999995 842.752 268.98133334 815.488 268.98133334z"  horiz-adv-x="1024" />

    
    <glyph glyph-name="download" unicode="&#58916;" d="M835.82720747 706.28609067c87.0731104-86.6878304 132.15078187-196.492416 135.61829546-329.4137568-3.4675136-126.75687253-48.54518507-232.7086656-135.61829546-318.62593814-86.6878304-85.91727253-196.492416-130.60966507-329.4137568-134.0771776-126.75687253 3.4675136-232.7086656 48.15990613-318.62593814 134.0771776-85.91727253 85.91727253-130.60966507 191.8690656-134.0771776 318.62593814 3.4675136 132.5360608 48.15990613 242.7259264 134.0771776 329.4137568 85.91727253 87.0731104 191.8690656 132.15078187 318.62593814 135.61829546C639.33479147 838.43687253 749.13937707 793.3592 835.82720747 706.28609067zM676.70687787 331.7946624c-4.23807147 8.86142293-14.25533227 13.48477333-30.82234027 13.48477333l-95.54925333 0L550.33528533 631.5419168000001c0 5.39390933-1.5411168 10.0172608-5.0086304 13.87005333-3.4675136 3.85279253-7.70558507 5.77918827-13.48477333 5.77918827l-38.91320427 0c-4.62335147 0-9.24670187-1.92639573-12.71421546-5.77918827-3.85279253-3.85279253-5.77918827-8.47614293-5.77918827-13.87005333l0-286.26248107-95.54925333 0c-16.567008 0-26.58426773-4.62335147-30.82234027-13.48477333-4.23807147-8.86142293-1.5411168-19.6492416 8.090864-31.97817707l120.9776832-157.96449173c10.40253973-12.32893547 21.96091733-18.49340373 35.06041173-18.49340373s24.657872 6.16446827 35.06041174 18.49340373l120.9776832 157.96449173C678.24799573 312.1454208 680.9449504 322.93323947 676.70687787 331.7946624z"  horiz-adv-x="1024" />

    
    <glyph glyph-name="weibo" unicode="&#58918;" d="M386.119523 142.66606666999996c7.482415 12.238742 9.521864 25.157983 6.121418 38.759769-3.40147 13.598716-11.901051 23.12058-25.50079 28.559453-12.919241 5.439896-26.859741 5.439896-41.819454 0-14.959713-5.438872-26.180266-13.9405-33.660634-25.50079-8.840342-12.920264-11.56029-25.839505-8.160867-38.758746 3.400446-12.921287 11.56029-22.781866 24.480554-29.581736 12.919241-6.79987 27.200502-7.139607 42.839691-1.019213C366.060675 121.24417467 377.961726 130.42425466999998 386.119523 142.66606666999996L386.119523 142.66606666999996zM439.161576 211.00552467c3.399423 4.758374 4.078899 9.859555 2.039449 15.300474-2.039449 5.438872-5.438872 8.838296-10.200316 10.19827-4.759397 2.039449-10.199293 2.039449-16.319687 0-6.118348-2.039449-10.199293-5.438872-12.239765-10.19827-6.118348-12.240789-3.399423-21.082154 8.16189-26.52205 5.437849-1.359974 10.879792-1.01819 16.319687 1.02126C432.361707 202.84465766999995 436.441629 206.24510467000005 439.161576 211.00552467L439.161576 211.00552467zM538.101983 149.80362766999997c-16.999163-38.757722-46.921659-66.977437-89.760326-84.658122-42.839691-17.680684-85.340667-20.060895-127.501906-7.141654-40.800241 12.922311-68.681242 37.063127-83.640955 72.421426-14.959713 35.359322-13.9405 70.719668 3.060709 106.080014 18.359137 35.362392 47.260373 61.882396 86.699618 79.562057 39.441291 17.679661 79.221296 21.080108 119.342062 10.200316 42.158169-10.880815 72.41938-33.32192 90.779539-67.320245C555.441906 224.94500167 555.782667 188.56441967 538.101983 149.80362766999997zM715.58421 241.60442666999995c-3.399423 36.041868-20.060895 68.000743-49.983391 95.880721-29.918403 27.879977-69.698408 48.621371-119.338992 62.22111-49.63956 13.600763-101.660354 17.679661-156.061358 12.240789-84.319407-8.842389-154.360623-35.701107-210.120578-80.58127-55.760978-44.881187-80.921008-95.200222-75.480088-150.960177 3.399423-36.040844 20.399609-68.00279 51.000558-95.881744 30.598902-27.877931 70.040193-48.619324 118.320802-62.220087 48.279586-13.599739 100.30038-17.677615 156.060335-12.239765 84.999906 8.838296 155.040099 35.69906 210.120578 80.580247C695.184601 135.52441266999995 720.342584 185.84549567 715.58421 241.60442666999995L715.58421 241.60442666999995zM891.024941 238.54371766999998c0-25.838482-6.800893-52.018747-20.402679-78.538751-13.600763-26.521027-34.339086-52.700269-62.220087-78.540797-27.878954-25.840528-59.8409-47.941895-95.880721-66.302055-36.039821-18.358113-78.880535-34.341133-128.521119-47.940872-49.641607-13.598716-100.979856-19.379373-154.020886-17.3389s-105.400538 8.500605-157.081595 19.379373c-51.680033 10.881838-97.240695 28.220738-136.681986 52.021817-39.440267 23.799032-72.079642 52.700269-97.92017 86.701664C12.455171 141.98454467 0.215406 179.72305467 1.576403 221.20481767c0 43.522236 13.260002 90.101087 39.781028 139.740648 26.520003 49.64263 63.919798 98.601692 112.200408 146.882302 63.920822 63.920822 128.860856 108.461247 194.822151 133.6223 65.960271 25.159006 112.542192 24.139793 139.742694-3.059686 24.478508-24.480554 28.217668-64.261583 11.220552-119.342062-1.359974-5.440919-1.359974-9.18008 0-11.220552 1.359974-2.039449 3.058662-3.399423 5.099135-4.079922 2.037403-0.678452 4.758374-0.678452 8.15882 0 3.399423 0.680499 6.119371 1.360997 8.160867 2.040473l3.059686 1.020236c53.04103 22.440082 99.961666 33.660634 140.761907 33.660634s69.699432-11.56029 86.701664-34.68087c17.000186-23.800056 17.000186-57.46069 0-100.980879-0.681522-5.438872-1.699712-9.18008-3.060709-11.219529-1.357927-2.040473-0.338714-4.420683 3.060709-7.141654 3.3984-2.719948 5.779633-4.418636 7.140631-5.098111 1.360997-0.680499 4.419659-1.701758 9.181103-3.061732 21.76163-6.800893 41.479717-15.639189 59.160401-26.520003 17.681708-10.880815 32.639375-26.520003 44.881187-46.920636C883.883287 284.44411766999997 890.345466 262.34479667000005 891.024941 238.54371766999998L891.024941 238.54371766999998zM849.205487 594.52840867c15.639189-18.36016 25.838482-39.10053 30.598902-62.22111 4.758374-23.118534 3.741207-45.559639-3.059686-67.321268-3.40147-8.15882-9.18008-14.619976-17.339924-19.379373-8.160867-4.76042-16.658402-5.439896-25.499767-2.040473-8.162914 3.400446-14.623046 9.18008-19.380396 17.340947-4.758374 8.157797-5.438872 16.660448-2.040473 25.498744 7.482415 23.801079 3.059686 44.541449-13.258978 62.222133-16.319687 17.678638-36.72032 24.479531-61.200874 20.400632-8.841366-2.039449-17.337877-0.679475-25.499767 4.079922-8.16189 4.76042-12.921287 11.901051-14.281261 21.420869-2.040473 9.519818-0.338714 18.019399 5.099135 25.50079 5.439896 7.480368 12.241812 12.239765 20.401656 14.280238 23.121604 4.759397 45.899376 3.739161 68.338435-3.060709C814.523593 624.44783467 833.562205 612.20909267 849.205487 594.52840867zM952.225815 687.34842067c32.639375-36.72032 54.057173-79.221296 64.260559-127.500882 10.201339-48.28061 7.481392-93.840248-8.162914-136.681986-3.397377-10.199293-9.859555-18.018376-19.377326-23.459295-9.521864-5.438872-19.380396-6.119371-29.581736-2.039449-10.199293 4.078899-17.679661 10.539031-22.441105 19.379373-4.758374 8.841366-5.779633 18.699897-3.059686 29.580712 10.880815 31.279401 12.919241 63.919798 6.119371 97.919147-6.800893 34.001395-22.101367 63.921845-45.899376 89.76135-23.802102 26.520003-52.020794 44.539402-84.661192 54.060243-32.639375 9.519818-65.281819 11.220552-97.922217 5.100158-10.878768-2.040473-20.738323 0-29.577642 6.120394s-14.618952 14.280238-17.3389 24.480554c-2.721994 10.199293-1.019213 20.060895 5.100158 29.579689 6.118348 9.520841 14.616906 14.959713 25.50079 16.321734 46.239114 9.518794 92.478228 7.479345 138.721435-6.120394C880.144126 750.24900567 919.585417 724.7492386700001 952.225815 687.34842067L952.225815 687.34842067z"  horiz-adv-x="1024" />

    
    <glyph glyph-name="arrowdown" unicode="&#59254;" d="M515.2 803.2l0-755.2-236.8 230.4c-12.8 12.8-32 12.8-44.8 0-12.8-12.8-12.8-32 0-44.8l291.2-284.8c0 0 3.2 0 3.2-3.2 3.2-3.2 3.2-3.2 6.4-3.2 3.2 0 6.4-3.2 9.6-3.2 0 0 0 0 3.2 0 0 0 0 0 0 0 3.2 0 9.6 0 12.8 3.2 3.2 3.2 6.4 3.2 9.6 6.4l288 288c6.4 6.4 9.6 16 9.6 22.4s-3.2 16-9.6 22.4c-12.8 12.8-32 12.8-44.8 0l-233.6-233.6L579.2 803.2c0 19.2-12.8 32-32 32S515.2 819.2 515.2 803.2z"  horiz-adv-x="1024" />

    
    <glyph glyph-name="time" unicode="&#59104;" d="M856.10666667 122.13333333000003h-63.46666667V235.41333333c0 15.04-12.26666667 27.41333333-27.41333333 27.41333334h-9.28c-15.04 0-27.41333333-12.26666667-27.41333334-27.41333334v-137.06666666c-0.10666667-1.17333333-0.21333333-2.34666667-0.21333333-3.62666667v-9.28c0-15.04 12.26666667-27.41333333 27.41333333-27.41333333h100.37333334c15.04 0 27.41333333 12.26666667 27.41333333 27.41333333v9.28c-0.10666667 15.04-12.37333333 27.41333333-27.41333333 27.41333333zM761.06666667 365.86666667c-126.93333333 0-229.86666667-102.93333333-229.86666667-229.86666667S634.13333333-93.86666666999997 761.06666667-93.86666666999997 990.93333333 9.066666670000018 990.93333333 136 888 365.86666667 761.06666667 365.86666667z m117.33333333-347.2c-31.36-31.36-72.96-48.53333333-117.33333333-48.53333334s-85.97333333 17.28-117.33333334 48.53333334S595.2 91.73333333000005 595.2 136s17.28 85.97333333 48.53333333 117.33333333S716.8 301.86666667 761.06666667 301.86666667s85.97333333-17.28 117.33333333-48.53333334S926.93333333 180.26666666999995 926.93333333 136s-17.28-85.97333333-48.53333333-117.33333333zM454.4 13.866666669999972H99.2V498.45333333h775.46666667V451.2c0-17.6 14.4-32 32-32s32 14.4 32 32V738.13333333c0 35.2-28.8 64-64 64H718.93333333V829.86666667c0 17.6-14.4 32-32 32s-32-14.4-32-32v-27.73333334H321.06666667V829.86666667c0 17.6-14.4 32-32 32s-32-14.4-32-32v-27.73333334H99.2c-35.2 0-64-28.8-64-64v-724.26666666c0-35.2 28.8-64 64-64h355.2c17.6 0 32 14.4 32 32s-14.4 32-32 32zM257.06666667 738.13333333v-23.46666666c0-17.6 14.4-32 32-32s32 14.4 32 32v23.46666666h333.86666666v-23.46666666c0-17.6 14.4-32 32-32s32 14.4 32 32v23.46666666h155.73333334v-175.68H99.2V738.13333333h157.86666667zM317.97333333 391.89333333c0 5.86666667-4.8 10.66666667-10.66666666 10.66666667h-90.02666667c-5.86666667 0-10.66666667-4.8-10.66666667-10.66666667V301.86666667c0-5.86666667 4.8-10.66666667 10.66666667-10.66666667h90.02666667c5.86666667 0 10.66666667 4.8 10.66666666 10.66666667v90.02666666zM307.30666667 207.03999999999996h-90.02666667c-5.86666667 0-10.66666667-4.8-10.66666667-10.66666667v-90.13333333c0-5.86666667 4.8-10.66666667 10.66666667-10.66666667h90.02666667c5.86666667 0 10.66666667 4.8 10.66666666 10.66666667v90.13333333c0 5.86666667-4.8 10.66666667-10.66666666 10.66666667zM441.92 402.56c-5.86666667 0-10.66666667-4.8-10.66666667-10.66666667V301.86666667c0-5.86666667 4.8-10.66666667 10.66666667-10.66666667h90.02666667c5.86666667 0 10.66666667 4.8 10.66666666 10.66666667v90.13333333c0 5.86666667-4.8 10.66666667-10.66666666 10.66666667h-90.02666667zM441.92 207.03999999999996c-5.86666667 0-10.66666667-4.8-10.66666667-10.66666667v-90.13333333c0-5.86666667 4.8-10.66666667 10.66666667-10.66666667h60.90666667c-1.70666667 11.41333333-2.66666667 23.14666667-2.66666667 34.98666667 0 26.77333333 4.58666667 52.48 13.01333333 76.37333333h-71.25333333z"  horiz-adv-x="1024" />

    
    <glyph glyph-name="qq" unicode="&#59522;" d="M869.50281481 245.91762963999997c-18.20444445 58.48177778-39.13955555 107.63377778-71.33866666 188.07466666C803.17037037 645.27762964 715.33392593 816.1718518600001 513.03703704 816.1718518600001 308.46459259 816.1718518600001 222.56237037 641.8642963 228.02370371 433.9922963c-32.31288889-80.55466667-53.13422222-129.36533333-71.33866667-188.07466666-38.68444445-124.58666667-26.16888889-176.128-16.61155556-177.26577779 20.48-2.50311111 79.75822222 93.75288889 79.75822223 93.75288889 0-55.75111111 28.672-128.45511111 90.79466665-180.90666665-30.03733333-9.216-97.50755555-34.01955555-81.46488888-61.21244445 12.97066667-21.95911111 223.232-13.99466667 283.87555556-7.16800001 60.64355555-6.82666667 270.90488889-14.79111111 283.87555555 7.16800001 16.04266667 27.07911111-51.54133333 51.99644445-81.46488889 61.21244445 62.12266667 52.56533333 90.79466667 125.26933333 90.79466667 180.90666665 0 0 59.27822222-96.256 79.75822222-93.75288889 9.67111111 1.25155555 22.18666667 52.79288889-16.49777778 177.26577779z"  horiz-adv-x="1024" />

    
    <glyph glyph-name="facebook" unicode="&#58889;" d="M767.88508025 535.0563555L614.13704805 535.0563555 614.13704805 632.76479736c0 36.6834975 25.07865844 45.26110311 42.76737281 45.26110312 17.63318813 0 108.48487406 0 108.48487406 0L765.38929399 839.32303518l-149.41791188 0.58807593c-165.89575125 0-203.64330094-120.313035-203.64330094-197.31609561l0-107.53866-95.92898437 0 0-166.21413189 95.92898437 0 0-470.40151968 201.80799189 0L614.13607399 368.84222361 750.26650492 368.84222361 767.88508025 535.0563555z"  horiz-adv-x="1024" />

    
    <glyph glyph-name="xiazai" unicode="&#58911;" d="M473.16385185 797.52533332a38.83614815 38.83614815 0 0 0 77.6722963 0v-543.70607408a38.83614815 38.83614815 0 0 0-77.6722963 0zM861.52533333 59.63851851000004V253.81925923999995a38.83614815 38.83614815 0 0 0 77.6722963 0v-233.01688888a38.83614815 38.83614815 0 0 0-38.83614815-38.83614815H123.63851852a38.83614815 38.83614815 0 0 0-38.83614815 38.83614815V253.81925923999995a38.83614815 38.83614815 0 0 0 77.6722963 0v-194.18074073zM677.44199111 435.57243258a38.83614815 38.83614815 0 1 0 57.47749926-52.81716148l-213.59881482-233.01688889a38.83614815 38.83614815 0 0 0-57.47749925 0l-213.59881482 233.01688889a38.83614815 38.83614815 0 1 0 57.47749927 52.81716148L492.58192592 233.62446221000005z"  horiz-adv-x="1024" />

    
    <glyph glyph-name="star-2" unicode="&#58888;" d="M976.43462188 462.71638791l-177.04123313-153.58857844c-11.1494325-11.00334094-16.23441-26.84928094-13.60476469-42.38311687l41.80539094-246.71190469c3.26879625-19.54968937 0.00498-33.55786594-15.83265844-45.23521969a51.0888375 51.0888375 0 0 0-30.27412875-9.95745937 50.89626281 50.89626281 0 0 0-23.94405375 5.99472937l-223.54147219 121.97140407a46.78578094 46.78578094 0 0 1-44.01668437 0L275.82992-29.16516177999995c-17.3516775-9.25356375-38.35896187-7.69138219-54.24806531 3.96273-15.83265844 11.67569344-28.48118906 25.66228781-25.15594875 45.23521969l51.21002719 251.82842531c2.62964531 15.53549531-2.45367187 31.38143531-13.60310438 42.38311594L47.5853 462.71638791c-14.08288219 13.84050281-19.10477531 34.56058406-13.08016406 53.43460125 6.074415 18.86903625 22.16605406 32.60661187 41.57961375 35.47199531L318.60482656 594.71165635c15.39770531 2.26607719 28.70862656 12.05752312 35.59982625 26.18190843L465.85834906 859.43431041c8.64761625 17.80157344 26.54215687 29.06389406 46.16323219 29.063895 19.62273562 0 37.45917094-11.26232156 46.1648925-29.063895l107.26929375-238.53576469c6.89119969-14.12936531 20.20212094-23.92081219 35.60978719-26.19187031l246.89119875-43.08369094c19.36541531-2.83882219 35.50519875-16.60295906 41.53312968-35.47697625 6.04951312-18.86903625 0.95125406-39.58745812-13.05194062-53.43460125l-0.00332063 0.00498094z"  horiz-adv-x="1024" />

    
    <glyph glyph-name="star-1" unicode="&#58891;" d="M271.68955531-36.48965522000003c-17.92774312 0-35.07356438 5.62618031-49.58143968 16.26927282-29.963685 22.09632937-42.60059344 48.09562312-37.63348407 77.33217094 0.066405 0.38681063 0.13779094 0.77362031 0.21581625 1.15877156l47.14436907 231.83382094a8.109735 8.109735 0 0 1-1.51901907 5.86357875L60.21556813 431.42127854a36.58594313 36.58594313 0 0 0-2.84712282 2.52007781c-22.94963625 22.554525-31.10087344 55.69735875-21.26958469 86.49110719 9.90599531 30.76718719 35.62804781 52.78881094 67.24522219 57.68619468l223.60289719 39.72690844c0.35692781 0.06308531 0.71551594 0.12118969 1.07078344 0.17431313 2.24615531 0.33036562 4.22337094 1.79294062 5.32403625 3.92786718l102.97785843 220.00207594 0.22577719 0.47479687c13.98825469 28.79329312 43.6132725 47.39836875 75.47448656 47.39836875 32.25964406 0 61.16416594-18.12861844 75.4329825-47.31204187 0.17265375-0.35194781 0.33866625-0.70721531 0.49969876-1.06414313l98.77274906-219.64016718c1.11394687-2.05856063 3.05961938-3.46635094 5.26427156-3.79173657 0.317085-0.04648406 0.63582938-0.09794812 0.95291531-0.15273187l227.67353532-39.73022906c31.22704313-4.80109594 57.59488688-27.39214313 67.27510406-57.69449438 9.82962937-30.66093938 1.72487531-63.78883125-21.16167563-86.41972218-0.72547688-0.71883656-1.47917531-1.40280937-2.25611719-2.05192126l-161.80290093-140.36730374c-1.5057375-1.77799875-2.15484844-4.18850813-1.74977625-6.58241438l38.62126218-227.91923531c5.5249125-33.05816719-4.22005031-59.02425844-28.94768531-77.260785-14.48961375-10.67463563-31.64041594-16.31409656-49.61464219-16.32239813a83.86146188 83.86146188 0 0 0-39.61568062 9.99564282l-206.28940219 112.55846718a6.84305531 6.84305531 0 0 1-5.98808812 0.08632688l-197.21181188-112.31940844c-0.29550281-0.16767281-0.59100656-0.33036562-0.88816969-0.48973875a83.79173625 83.79173625 0 0 0-39.29693531-9.83460937z m-14.95777031 82.74585469c1.00271812-1.27165969 3.37006406-3.8066775 8.62271531-7.67810062a10.68293625 10.68293625 0 0 1 6.33339563-2.0784825c1.62526688 0 3.18910969 0.36854906 4.65500344 1.09568531l197.25331593 112.34431125c0.29716312 0.16933313 0.59432625 0.33202594 0.89481 0.49305844a79.99003969 79.99003969 0 0 0 37.50067406 9.36977343 79.99668 79.99668 0 0 0 37.81111875-9.53910656l206.31264375-112.57008843c3.45639-1.80290063 7.95700219-1.472535 11.17101469 0.89481 0.34364719 0.25399969 0.61922813 0.47313656 0.83504531 0.65575125 0.01660125 0.97449656-0.06308531 2.77739719-0.55780406 5.73740906l-38.60964094 227.84286844c-4.41760594 26.08562156 4.15032469 52.712445 22.9147725 71.22953343 0.55614375 0.54784313 1.12888875 1.07908406 1.718235 1.590405l162.38892657 140.87530313c2.74917469 3.13930594 3.69378938 7.62829688 2.39722781 11.67071343-1.32810375 4.156965-4.82101687 7.20828375-8.9099175 7.80759094a38.91510469 38.91510469 0 0 0-0.98113688 0.15771188l-227.69013656 39.73354968c-25.92126844 4.00589344-48.25831594 20.50260469-59.82610125 44.22088032a38.61628219 38.61628219 0 0 0-0.47977781 1.02928031L521.70511906 810.79748447c-1.97555437 3.73363219-5.6527425 6.0362325-9.68519718 6.0362325-4.11380156 0-7.83249281-2.35074375-9.74496282-6.14746031l-103.00276031-220.05519938-0.25233938-0.52958156c-11.56280437-23.69835469-33.86831062-40.18344469-59.75637562-44.19929906l-223.60123687-39.72690844c-0.3502875-0.061425-0.70223531-0.11952937-1.05252282-0.17099344-4.19514844-0.61922813-7.64489813-3.62904375-9.00620437-7.85241468-1.23015656-3.85316156-0.41337281-8.15621813 2.09010375-11.23077844l170.23636031-135.56620781a36.69385125 36.69385125 0 0 0 2.89858688-2.57154188c18.76942875-18.51874875 27.33735937-45.1472325 22.91809312-71.22953344-0.06474469-0.39345094-0.13779094-0.78524156-0.21747656-1.17537187L256.731785 46.256199469999956z"  horiz-adv-x="1024" />

    
    <glyph glyph-name="pic-s" unicode="&#58949;" d="M813.989888 718.72876089H210.010112c-38.56429511 0-69.90506667-31.34077155-69.90506667-69.90506667v-529.53088c0-38.56429511 31.34077155-69.90506667 69.90506667-69.90506667h604.09628445c38.56429511 0 69.90506667 31.34077155 69.90506666 69.90506667V648.82369422c-0.11650845 38.44778667-31.45728 69.90506667-70.02157511 69.90506667z m-115.45986845-132.93613511c29.360128 0 53.12785067-23.76772267 53.12785067-53.12785067S727.89014755 479.53692445 698.53001955 479.53692445c-29.360128 0-53.12785067 23.76772267-53.12785066 53.12785066s23.76772267 53.12785067 53.12785066 53.12785067z m138.76155734-466.61632c0-12.81592889-10.48576-23.30168889-23.30168889-23.30168889H210.010112c-12.81592889 0-23.30168889 10.48576-23.30168889 23.30168889V250.01528888999997l192.937984 193.28750933c4.66033778 4.54382933 10.83528533 6.99050667 17.35975822 6.64098133 6.52447289-0.34952533 12.582912-3.26223645 16.777216-8.27209955l128.27579734-152.50955378c23.18518045-27.61250133 63.14757689-33.08839822 92.85723022-12.81592889l43.34114133 29.47663645c8.97115022 6.17494755 21.32104533 5.12637155 29.12711111-2.33016889L830.41757867 185.93564445000004l6.87399822-6.5244729v-60.23486577z"  horiz-adv-x="1024" />

    
    <glyph glyph-name="left" unicode="&#58902;" d="M281.5 361.1l415.8-415.8c12.4-12.4 32.8-12.4 45.3 0 12.4 12.4 12.4 32.8 0 45.3L326.7 406.4c-12.4 12.4-32.8 12.4-45.3 0-12.4-12.4-12.4-32.8 0.1-45.3zM697.3 822.7L281.5 406.9c-12.4-12.4-12.4-32.8 0-45.3 12.4-12.4 32.8-12.4 45.3 0l415.8 415.8c12.4 12.4 12.4 32.8 0 45.3-12.5 12.4-32.9 12.4-45.3 0z"  horiz-adv-x="1024" />

    
    <glyph glyph-name="up" unicode="&#58901;" d="M534.9 614.5l415.8-415.8c12.4-12.4 12.4-32.8 0-45.3-12.4-12.4-32.8-12.4-45.3 0L489.6 569.3c-12.4 12.4-12.4 32.8 0 45.3 12.4 12.4 32.8 12.4 45.3-0.1zM73.3 198.7l415.8 415.8c12.4 12.4 32.8 12.4 45.3 0 12.4-12.4 12.4-32.8 0-45.3L118.6 153.5c-12.4-12.4-32.8-12.4-45.3 0-12.4 12.4-12.4 32.8 0 45.2z"  horiz-adv-x="1024" />

    
    <glyph glyph-name="down" unicode="&#58903;" d="M534.9 153.5l415.8 415.8c12.4 12.4 12.4 32.8 0 45.3-12.4 12.4-32.8 12.4-45.3 0L489.6 198.7c-12.4-12.4-12.4-32.8 0-45.3 12.4-12.4 32.8-12.4 45.3 0.1zM73.3 569.3l415.8-415.8c12.4-12.4 32.8-12.4 45.3 0 12.4 12.4 12.4 32.8 0 45.3L118.6 614.5c-12.4 12.4-32.8 12.4-45.3 0-12.4-12.4-12.4-32.8 0-45.2z"  horiz-adv-x="1024" />

    
    <glyph glyph-name="bianji" unicode="&#58887;" d="M799.75158518 343.85540741v-285.80977779c0-13.34992592-10.92266667-24.27259259-24.27259259-24.27259259h-582.54222222c-13.34992592 0-24.27259259 10.92266667-24.27259259 24.27259259v700.2642963c0 13.34992592 10.92266667 24.27259259 24.27259259 24.2725926h582.54222222c13.34992592 0 24.27259259-10.92266667 24.27259259-24.2725926V744.35318519h60.68148149v13.95674073c0 46.96746667-37.98660741 84.95407408-84.95407408 84.95407407h-582.54222222c-46.96746667 0-84.95407408-37.98660741-84.95407407-84.95407407v-700.2642963c0-46.96746667 37.98660741-84.95407408 84.95407407-84.95407406h582.54222222c46.96746667 0 84.95407408 37.98660741 84.95407408 84.95407406V343.85540741h-60.68148149zM830.21368889 743.74637036m-30.34074074 0a30.34074075 30.34074075 0 1 1 60.68148148 0 30.34074075 30.34074075 0 1 1-60.68148148 0ZM830.21368889 343.24859259000004m-30.34074074 0a30.34074075 30.34074075 0 1 1 60.68148148 0 30.34074075 30.34074075 0 1 1-60.68148148 0ZM822.81054815 608.3053036900001c5.46133333 0 15.65582222-1.45635555 24.02986667-10.67994073l0.24272593-0.36408889 0.48545184-0.60681481c11.40811852-13.1072 10.07312592-33.01072592-2.91271111-44.54020741L428.13819259 198.09848889l-58.86103704-4.6117926 15.4130963 52.30743704 417.24586667 354.74394074c7.5245037 6.43223703 15.53445925 7.76722963 20.87442963 7.76722962m0 60.6814815c-21.35988148 0-42.71976297-7.28177778-60.19602963-22.20942223l-424.0421926-360.448c-4.61179259-3.88361482-8.00995555-9.10222222-9.70903703-14.92764444l-29.97665186-102.18761483c-2.91271111-9.8304-0.72817778-20.38897778 5.70405927-28.27757036 5.94678518-7.28177778 14.80628148-11.52948148 24.02986667-11.52948148 0.84954075 0 1.57771852 0 2.42725925 0.12136296l111.28983703 8.61677038c6.5536 0.48545185 12.74311111 3.03407408 17.7189926 7.28177777l424.28491852 360.69072593c38.47205925 33.49617778 42.5984 91.7504 9.10222222 130.22245925l-0.36408889 0.48545185c-18.44717037 21.35988148-44.29748148 32.16118518-70.26915555 32.1611852zM498.8928 624.8106666599999h-213.59881482c-16.74808889 0-30.34074075 13.59265185-30.34074073 30.34074075s13.59265185 30.34074075 30.34074073 30.34074073h213.59881482c16.74808889 0 30.34074075-13.59265185 30.34074075-30.34074073s-13.59265185-30.34074075-30.34074075-30.34074075zM389.66613333 486.45688889h-104.37214815c-16.74808889 0-30.34074075 13.59265185-30.34074073 30.34074073s13.59265185 30.34074075 30.34074073 30.34074074h104.37214815c16.74808889 0 30.34074075-13.59265185 30.34074075-30.34074074s-13.59265185-30.34074075-30.34074075-30.34074073z"  horiz-adv-x="1024" />

    
    <glyph glyph-name="daochu" unicode="&#58890;" d="M868.2002963 334.94281480999996v-233.01688889c0-13.34992592-10.92266667-24.27259259-24.2725926-24.27259259h-679.63259259c-13.34992592 0-24.27259259 10.92266667-24.27259259 24.27259259V757.28592592c0 13.34992592 10.92266667 24.27259259 24.27259259 24.27259258h349.40397037v60.6814815H164.29511111c-46.96746667 0-84.95407408-37.98660741-84.95407408-84.95407408v-655.36c0-46.96746667 37.98660741-84.95407408 84.95407408-84.95407408h679.63259259c46.96746667 0 84.95407408 37.98660741 84.95407408 84.95407408V334.94281480999996h-60.68148148zM914.31822222 624.15075555c-7.76722963 0-15.53445925 2.91271111-21.48124444 8.85949629L736.52148148 789.44711111c-11.89357037 11.89357037-11.89357037 31.06891852 0 42.96248889 11.89357037 11.89357037 31.06891852 11.89357037 42.96248889 0L935.79946667 675.9727407299999c11.89357037-11.89357037 11.89357037-31.06891852 0-42.96248889-5.94678518-5.82542222-13.71401482-8.8594963-21.48124445-8.85949629zM757.88136297 468.19934815c-7.76722963 0-15.53445925 2.91271111-21.48124445 8.85949629-11.89357037 11.89357037-11.89357037 31.06891852 0 42.96248889l156.43685926 156.43685925c11.89357037 11.89357037 31.06891852 11.89357037 42.96248889 0 11.89357037-11.89357037 11.89357037-31.06891852 0-42.96248888L779.36260741 477.05884444c-5.94678518-5.94678518-13.71401482-8.8594963-21.48124444-8.85949629zM354.83496297 231.78429628000004h-1.09226667c-16.74808889 0.60681482-29.85528889 14.56355555-29.24847408 31.31164445 0.12136297 2.06317037 1.94180741 52.06471111 22.20942223 117.23662222C373.76758518 467.22844444 420.97777778 540.65303703 483.4797037 593.08183703c104.37214815 87.38133333 249.52225185 118.57161482 431.44533333 92.35721481 16.62672592-2.42725925 28.15620741-17.71899259 25.72894815-34.34571851-2.42725925-16.62672592-17.71899259-28.03484445-34.34571851-25.72894816-164.08272592 23.54441482-293.33428148-2.91271111-383.87105185-78.76456295-129.97973333-108.86257778-137.26151111-283.62524445-137.26151112-285.44568889-0.60681482-16.50536297-14.0781037-29.36983703-30.34074073-29.36983705zM513.82044445 811.89925925m-30.34074075 0a30.34074075 30.34074075 0 1 1 60.68148148 0 30.34074075 30.34074075 0 1 1-60.68148148 0ZM898.54103703 334.94281480999996m-30.34074073 0a30.34074075 30.34074075 0 1 1 60.68148148 0 30.34074075 30.34074075 0 1 1-60.68148148 0Z"  horiz-adv-x="1024" />

    
    <glyph glyph-name="arrowleft" unicode="&#58883;" d="M872 422H286.9l350.2 304c5.6 4.9 2.2 14-5.2 14h-88.5c-3.9 0-7.6-1.4-10.5-3.9L155 408.2c-14.7-12.8-14.7-35.6 0-48.3L535.1 30c1.5-1.3 3.3-2 5.2-2h91.5c7.4 0 10.8 9.2 5.2 14L286.9 346H872c4.4 0 8 3.6 8 8v60c0 4.4-3.6 8-8 8z"  horiz-adv-x="1024" />

    
    <glyph glyph-name="arrowright" unicode="&#58885;" d="M869 408.2L491.2 736.1c-2.9 2.5-6.6 3.9-10.5 3.9h-88.5c-7.4 0-10.8-9.2-5.2-14l350.2-304H152c-4.4 0-8-3.6-8-8v-60c0-4.4 3.6-8 8-8h585.1L386.9 42c-5.6-4.9-2.2-14 5.2-14h91.5c1.9 0 3.8 0.7 5.2 2L869 359.8c14.7 12.8 14.7 35.6 0 48.4z"  horiz-adv-x="1024" />

    
    <glyph glyph-name="cuowu0" unicode="&#58924;" d="M512 884C235.9 884 12 660.1 12 384s223.9-500 500-500 500 223.9 500 500S788.1 884 512 884z m166.3-609.7c15.6-15.6 15.6-40.9 0-56.6-7.8-7.8-18-11.7-28.3-11.7s-20.5 3.9-28.3 11.7L512 327.4 402.3 217.70000000000005c-7.8-7.8-18-11.7-28.3-11.7s-20.5 3.9-28.3 11.7c-15.6 15.6-15.6 40.9 0 56.6L455.4 384 345.7 493.7c-15.6 15.6-15.6 40.9 0 56.6 15.6 15.6 40.9 15.6 56.6 0L512 440.6l109.7 109.7c15.6 15.6 40.9 15.6 56.6 0 15.6-15.6 15.6-40.9 0-56.6L568.6 384l109.7-109.7z"  horiz-adv-x="1024" />

    
    <glyph glyph-name="sousuo" unicode="&#58933;" d="M444.58789062 79.28320312000005c-50.18554688 0-98.96484375 9.84375-144.84374999 29.26757813-44.296875 18.72070313-84.11132813 45.52734375-118.21289063 79.71679688-34.18945313 34.18945313-60.99609375 73.91601563-79.71679688 118.21289062C82.390625 352.44726562000005 72.546875 401.13867188 72.546875 451.41210938s9.84375 98.96484375 29.26757813 144.84374999C120.53515625 640.55273438 147.34179687 680.27929688 181.53125 714.46875s73.91601563 60.99609375 118.21289063 79.71679688C345.7109375 813.609375 394.40234375 823.453125 444.58789062 823.453125s98.96484375-9.84375 144.84375001-29.26757813c44.296875-18.72070313 84.11132813-45.52734375 118.21289062-79.71679687 34.18945313-34.18945313 60.99609375-73.91601563 79.71679688-118.21289063 19.42382813-45.87890625 29.26757813-94.65820313 29.26757812-144.84374999s-9.84375-98.96484375-29.26757813-144.84375001c-18.72070313-44.296875-45.52734375-84.11132813-79.71679687-118.21289062s-73.91601563-60.99609375-118.21289063-79.71679688c-45.87890625-19.51171875-94.5703125-29.35546875-144.84374999-29.35546874z m1e-8 673.85742188c-80.59570313 0-156.35742188-31.37695313-213.39843751-88.41796875S142.859375 532.0078125 142.859375 451.41210938s31.37695313-156.35742188 88.41796875-213.39843751c56.953125-56.953125 132.80273438-88.41796875 213.3984375-88.41796874S601.03320313 180.97265625 658.07421875 238.01367187000005C715.02734375 294.96679687000005 746.40429688 370.81640625 746.40429688 451.41210938S715.02734375 607.76953125 657.98632813 664.81054688C601.03320313 721.76367188 525.18359375 753.140625 444.58789062 753.140625zM916.296875-55.453125c-8.96484375 0-18.01757813 3.42773438-24.87304688 10.28320313L657.81054688 188.44335937000005c-13.7109375 13.7109375-13.7109375 35.94726563-1e-8 49.74609376s35.94726563 13.7109375 49.74609375 0l233.61328126-233.61328126c13.7109375-13.7109375 13.7109375-35.94726563-1e-8-49.74609374-6.85546875-6.85546875-15.90820313-10.28320313-24.87304687-10.28320313z"  horiz-adv-x="1024" />

    
    <glyph glyph-name="person-outline" unicode="&#58892;" d="M512 426.666667a170.666667 170.666667 0 1 1-170.666667 170.666666 170.666667 170.666667 0 0 1 170.666667-170.666666z m0 256a85.333333 85.333333 0 1 0-85.333333-85.333334 85.333333 85.333333 0 0 0 85.333333 85.333334zM512 341.333333a298.666667 298.666667 0 0 1-298.666667-298.666666 42.666667 42.666667 0 0 1 85.333334 0 213.333333 213.333333 0 0 0 426.666666 0 42.666667 42.666667 0 0 1 85.333334 0 298.666667 298.666667 0 0 1-298.666667 298.666666z"  horiz-adv-x="1024" />

    
    <glyph glyph-name="linkedin" unicode="&#58927;" d="M664.91733333 537.4293333400001a283.01843001 283.01843001 0 0 1-283.98933333-282.53297778v-285.44568889a43.69066667 43.69066667 0 0 1 43.69066667-43.69066667h101.94488888a43.69066667 43.69066667 0 0 1 43.69066667 43.69066667v285.44568889a94.17765888 94.17765888 0 0 0 104.37214777 93.69220778 97.09036999 97.09036999 0 0 0 84.95407446-97.09037112v-282.04752555a43.69066667 43.69066667 0 0 1 43.69066666-43.69066667h101.94488889a43.69066667 43.69066667 0 0 1 43.69066667 43.69066667v285.44568889a283.01843001 283.01843001 0 0 1-283.98933334 282.53297778zM75.09333333 493.73866667m43.69066667 0l131.072 0q43.69066667 0 43.69066667-43.69066667l0-480.59733333q0-43.69066667-43.69066667-43.69066667l-131.072 0q-43.69066667 0-43.69066667 43.69066667l0 480.59733333q0 43.69066667 43.69066667 43.69066667ZM184.32 690.34666667m-109.22666667 0a109.22666667 109.22666667 0 1 1 218.45333334 0 109.22666667 109.22666667 0 1 1-218.45333334 0Z"  horiz-adv-x="1024" />

    
    <glyph glyph-name="zhuxiaodenglu" unicode="&#58950;" d="M648.32-36h-432c-47.52 0-86.4 38.88-86.4 86.4v667.2c0 47.52 38.88 86.4 86.4 86.4h432c47.52 0 86.4-38.88 86.4-86.4V609.6h-57.6V717.6c0 15.84-12.96 28.8-28.8 28.8h-432c-15.84 0-28.8-12.96-28.8-28.8v-667.2c0-15.84 12.96-28.8 28.8-28.8h432c15.84 0 28.8 12.96 28.8 28.8v95.04h57.6v-95.04c0-47.52-38.88-86.4-86.4-86.4zM865.28 355.20000000000005h-451.2c-15.84 0-28.8 12.96-28.8 28.8s12.96 28.8 28.8 28.8h451.2c15.84 0 28.8-12.96 28.8-28.8s-12.96-28.8-28.8-28.8zM845.12 363.36l-129.12 129.12c-11.04 11.04-11.04 29.76 0 40.8s29.76 11.04 40.8 0l129.12-129.12c11.04-11.04 11.04-29.76 0-40.8-11.52-11.04-29.76-11.04-40.8 0zM845.12 404.16l-129.12-129.12c-11.04-11.04-11.04-29.76 0-40.8s29.76-11.04 40.8 0l129.12 129.12c11.04 11.04 11.04 29.76 0 40.8-11.52 11.04-29.76 11.04-40.8 0zM705.92 609.6m-28.8 0a28.8 28.8 0 1 1 57.6 0 28.8 28.8 0 1 1-57.6 0ZM705.92 144.48000000000002m-28.8 0a28.8 28.8 0 1 1 57.6 0 28.8 28.8 0 1 1-57.6 0Z"  horiz-adv-x="1024" />

    
    <glyph glyph-name="duanxin" unicode="&#58985;" d="M530 834C271.7 834 62 654 62 432.15c0-131.85 48.15-239.85 144-318.15v-131.85c0-36 12.15-48.15 30.15-48.15 11.25 0.45 21.6 4.5 30.15 12.15l144 84.15c39.6-7.2 79.65-10.8 120.15-12.15 257.85 0 432 192.15 432 414S746.45 834 530 834z m0-747c-23.85 0-84.15 5.85-108 5.85l-23.85 5.85-18-12.15-108-68.85v130.5l-23.85 18c-77.85 66.15-111.15 157.5-111.15 265.5 0 192.15 171 333 399.15 333 153.9 3.15 347.85-135 363.15-333-6.3-203.85-159.3-344.7-369.45-344.7zM301.85 479.85c-29.7 0-54-24.3-54-54s24.3-54 54-54 54 24.3 54 54c0 14.4-5.85 27.9-15.75 38.25s-23.85 15.75-38.25 15.75z m210.15 0c-29.7 0-54-24.3-54-54s24.3-54 54-54 54 24.3 54 54c0 14.4-5.85 27.9-15.75 38.25s-23.85 15.75-38.25 15.75z m210.15 0c-29.7 0-54-24.3-54-54s24.3-54 54-54 54 24.3 54 54c0 14.4-5.85 27.9-15.75 38.25-10.35 10.35-23.85 15.75-38.25 15.75z"  horiz-adv-x="1024" />

    
    <glyph glyph-name="biaoqian-" unicode="&#58945;" d="M673.78062222-30.037333330000024c-9.3184 0-18.6368 3.54986667-25.74791111 10.66097778L189.69031111 438.96604445c-6.71288889 6.71288889-10.5472 15.79235555-10.66097778 25.2928l-3.74328888 301.9776a36.38499555 36.38499555 0 0 0 10.53582222 26.06648888 36.40888889 36.40888889 0 0 0 25.87306666 10.78613334h0.09102222l304.9472-0.77368889c9.6256-0.02275555 18.85297778-3.85706667 25.6568889-10.66097778l458.3424-458.3424c14.22222222-14.22222222 14.22222222-37.2736 0-51.48444445L699.52853333-19.37635554999997c-7.11111111-7.11111111-16.42951111-10.66097778-25.74791111-10.66097778zM251.65368889 479.98293333l422.12693333-422.12693333 249.70808889 249.70808889L501.52106667 729.54311111l-252.96213334 0.63715556 3.09475556-250.19733334zM358.11555555 620.25955555m-61.44 0a61.44 61.44 0 1 1 122.88 0 61.44 61.44 0 1 1-122.88 0Z"  horiz-adv-x="1024" />

    
    <glyph glyph-name="bofang" unicode="&#58931;" d="M285.14666666 710.752C222.18666666 742.24 170.66666666 710.4 170.66666666 640v-512c0-70.4 51.52-102.24 114.48-70.752l539.024 269.52c62.96 31.488 62.96 83.008 0 114.48L285.14666666 710.752z"  horiz-adv-x="1024" />

    
    <glyph glyph-name="fenxiang1" unicode="&#58932;" d="M805.328 512H736a32 32 0 1 1 0-64h69.328c14.704 0 26.672-11.168 26.672-24.896v-334.224c0-13.712-11.968-24.88-26.672-24.88H218.672C203.968 64 192 75.168 192 88.896V423.104c0 13.728 11.968 24.896 26.672 24.896H288a32 32 0 1 1 0 64h-69.328C168.672 512 128 472.128 128 423.104v-334.224C128 39.872 168.672 0 218.672 0h586.672C855.328 0 896 39.872 896 88.896V423.104C896 472.128 855.328 512 805.328 512zM480 192a32 32 0 0 1 64 0V576h128L512.832 768 352 576h128v-384z"  horiz-adv-x="1024" />

    
    <glyph glyph-name="yishoucang" unicode="&#58884;" d="M1019.733333 577.42222255c-17.066667 132.266667-123.733333 238.933333-256 256-98.133333 12.8-187.733333-21.333333-251.733333-89.6C448 812.08888855 354.133333 846.22222255 260.266667 833.42222255 128 816.35555555 21.333333 705.42222255 4.266667 573.1555555499999c-12.8-89.6 17.066667-183.466667 81.066666-247.466667l349.866667-349.866666c21.333333-21.333333 46.933333-29.866667 76.8-29.866667s55.466667 12.8 76.8 29.866667l358.4 358.4c59.733333 68.266667 85.333333 153.6 72.533333 243.2z"  horiz-adv-x="1024" />

    
    <glyph glyph-name="shoucang" unicode="&#58900;" d="M512-54.044444450000015c-29.866667 0-55.466667 12.8-76.8 29.866667L85.333333 325.68888855C21.333333 389.68888855-8.533333 483.55555555 4.266667 573.1555555499999c17.066667 132.266667 123.733333 238.933333 256 256 98.133333 12.8 187.733333-21.333333 251.733333-89.6 64 68.266667 153.6 102.4 251.733333 89.6 132.266667-17.066667 238.933333-123.733333 256-256 12.8-89.6-17.066667-174.933333-72.533333-243.2l-358.4-358.4c-21.333333-17.066667-46.933333-25.6-76.8-25.6zM298.666667 748.08888855h-25.6C174.933333 735.28888855 98.133333 658.48888855 85.333333 564.6222225500001c-8.533333-64 12.8-132.266667 59.733334-174.933334l349.866666-349.866666c4.266667-4.266667 12.8-4.266667 17.066667-4.266667 4.266667 0 8.533333 0 17.066667 4.266667l358.4 358.4c42.666667 46.933333 59.733333 106.666667 51.2 170.666666-12.8 93.866667-89.6 170.666667-183.466667 179.2-68.266667 8.533333-136.533333-12.8-183.466667-64-29.866667-34.133333-89.6-34.133333-119.466666 0C409.6 726.75555555 358.4 748.08888855 298.666667 748.08888855z"  horiz-adv-x="1024" />

    
    <glyph glyph-name="biaoqian" unicode="&#58894;" d="M485.7-51.39999999999998c6.5-6.5 15.2-10.1 24.4-10.1 9.1 0 17.9 3.6 24.4 10.1l414.8 414.8c6.7 6.7 10.3 15.8 10.1 25.3L949.6 779c-0.5 18.1-14.8 32.7-32.8 33.6L516.6 832.1c-9.7 0.5-19.2-3.2-26.1-10.1L75.8 407.3c-13.5-13.5-13.5-35.3 0-48.8l409.9-409.9z m42.8 813.8l352.8-17.2 8.6-343.5-379.8-379.9L149 382.9l379.5 379.5z m84-208.7L383.2 324.29999999999995c-6.7-6.7-15.6-10.1-24.4-10.1-8.8 0-17.7 3.4-24.4 10.1-13.5 13.5-13.5 35.3 0 48.8l229.3 229.3c13.5 13.5 35.3 13.5 48.8 0 13.5-13.4 13.5-35.3 0-48.7zM510.1 197.5c-6.7-6.7-15.6-10.1-24.4-10.1-8.8 0-17.7 3.4-24.4 10.1-13.5 13.5-13.5 35.3 0 48.8l151.3 151.3c13.5 13.5 35.3 13.5 48.8 0s13.5-35.3 0-48.8L510.1 197.5z m258.6 434.2c-16.2 16.2-16.2 42.4 0 58.6 16.2 16.2 42.4 16.2 58.6 0 16.2-16.2 16.2-42.4 0-58.6-16.2-16.1-42.4-16.1-58.6 0z"  horiz-adv-x="1024" />

    
    <glyph glyph-name="zhengque" unicode="&#58898;" d="M511.2-42.26666666999995c246.9 0 447.8 200.9 447.8 447.8S758.1 853.43333333 511.2 853.43333333 63.3 652.53333333 63.3 405.63333333s200.9-447.9 447.9-447.9z m0 833.5c212.6 0 385.6-173 385.6-385.6s-173-385.6-385.6-385.6c-212.6 0-385.6 173-385.6 385.6s172.9 385.6 385.6 385.6zM327 384.13333333c-12.1 12.1-12.1 31.8 0 44 12.1 12.1 31.8 12.1 44 0l104-104 217.5 217.5c12.1 12.1 31.8 12.1 44 0 12.1-12.1 12.1-31.8 0-44L496.9 258.23333333000005c-6.1-6.1-14-9.1-22-9.1s-15.9 3-22 9.1L327 384.13333333z"  horiz-adv-x="1024" />

    
    <glyph glyph-name="yuanjianshao" unicode="&#58899;" d="M511.8-42.26666666999995c119.6 0 232.1 46.6 316.7 131.2 174.6 174.6 174.6 458.7 0 633.3-84.6 84.6-197 131.2-316.7 131.2-119.6 0-232.1-46.6-316.7-131.2-174.6-174.6-174.6-458.7 0-633.3 84.7-84.6 197.1-131.2 316.7-131.2zM239.2 678.33333333c72.8 72.8 169.7 113 272.7 113s199.8-40.1 272.7-113c150.4-150.4 150.4-395 0-545.4-72.8-72.8-169.7-112.9-272.7-112.9S312 60.13333333000003 239.2 132.93333332999998C88.8 283.33333332999996 88.8 527.93333333 239.2 678.33333333z m118.7-382.7l110 110-110 110c-12.1 12.1-12.1 31.8 0 44 12.1 12.1 31.8 12.1 44 0l110-110 110 110c12.1 12.1 31.8 12.1 44 0 12.1-12.1 12.1-31.8 0-44l-110-110 110-110c12.1-12.1 12.1-31.8 0-44-6.1-6.1-14-9.1-22-9.1s-15.9 3-22 9.1l-110 110-110-110c-6.1-6.1-14-9.1-22-9.1s-15.9 3-22 9.1c-12.1 12.2-12.1 31.9 0 44z"  horiz-adv-x="1024" />

    
    <glyph glyph-name="quxiao" unicode="&#58909;" d="M103.34374999 29.531249989999992l354.65625001 354.65625001L103.34374999 738.9375c-14.90625001 14.90625001-14.90625001 39.09375001 2e-8 54 14.90625001 14.90625001 39.09375001 14.90625001 54 0L512 438.28125001 866.75 792.9375c14.90625001 14.90625001 39.09375001 14.90625001 54 0 14.90625001-14.90625001 14.90625001-39.09375001 0-54L566 384.28125001 920.75 29.531249989999992c14.90625001-14.90625001 14.90625001-39.09375001 0-53.99999998-7.50000001-7.40625001-17.25-11.15625001-27-11.15625001s-19.50000001 3.75-27 11.15625001L512.09375001 330.28124999 157.34374999-24.375c-7.50000001-7.40625001-17.25-11.15625001-26.99999998-11.15625001-9.75 0-19.50000001 3.75-27 11.15625001-14.90625001 14.90625001-14.90625001 39 0 53.90625001z"  horiz-adv-x="1024" />

    
    <glyph glyph-name="charulianjie" unicode="&#58910;" d="M910.496 682.4639999999999C804.16 813.792 611.488 834.048 480.128 727.6800000000001l-100.768-81.6 50.336-62.176 100.768 81.6A225.984 225.984 0 1 0 814.912 314.24l-107.968-87.424 50.336-62.176 107.968 87.424a305.984 305.984 0 0 1 45.248 430.4zM516.352 72.44799999999998a225.984 225.984 0 1 0-284.448 351.264l110.976 89.856-50.336 62.176-110.976-89.856C50.24 379.552 29.984 186.84799999999996 136.32 55.51999999999998c106.336-131.328 299.04-151.584 430.368-45.248l105.12 85.12-50.336 62.176-105.12-85.12zM676.16 542.72l51.232-61.44L383.84 194.976l-51.2 61.44z"  horiz-adv-x="1024" />

    
    <glyph glyph-name="view" unicode="&#58929;" d="M512 202.66666666000003a224 224 0 1 0 0 448 224 224 0 0 0 0-448z m0 64a160 160 0 1 1 0 320 160 160 0 0 1 0-320zM512 74.66666666000003C323.232 74.66666666000003 154.144 187.40266666000002 5.44 408.81066666a32 32 0 0 0 0 35.712C154.144 665.96266666 323.2 778.66666666 512 778.66666666c188.768 0 357.856-112.736 506.56-334.144a32 32 0 0 0 0-35.712C869.856 187.37066665999998 700.8 74.66666666000003 512 74.66666666000003z m0 64c159.84 0 306.72 94.784 441.248 288C818.72 619.88266666 671.84 714.66666666 512 714.66666666c-159.84 0-306.72-94.784-441.248-288C205.28 233.45066666000002 352.16 138.66666666000003 512 138.66666666000003z"  horiz-adv-x="1024" />

    
    <glyph glyph-name="duanxin1" unicode="&#58880;" d="M530.773333 887.466667C256 887.466667 32.426667 694.613333 32.426667 457.386667c0-139.946667 51.2-256 153.6-339.626667v-139.946667c0-37.546667 13.653333-51.2 32.426666-51.2 11.946667 0 22.186667 5.12 32.426667 13.653334l153.6 90.453333c42.666667-8.533333 85.333333-11.946667 128-13.653333 274.773333 0 460.8 204.8 460.8 442.026666S762.88 887.466667 530.773333 887.466667zM288.426667 390.826667c-32.426667 0-58.026667 25.6-58.026667 58.026666s25.6 58.026667 58.026667 58.026667c15.36 0 30.72-5.12 40.96-17.066667 10.24-10.24 17.066667-25.6 17.066666-40.96 0-30.72-27.306667-58.026667-58.026666-58.026666z m223.573333 0c-32.426667 0-58.026667 25.6-58.026667 58.026666s25.6 58.026667 58.026667 58.026667c15.36 0 30.72-5.12 40.96-17.066667 10.24-10.24 17.066667-25.6 17.066667-40.96 0-30.72-25.6-58.026667-58.026667-58.026666z m223.573333 0c-32.426667 0-58.026667 25.6-58.026666 58.026666s25.6 58.026667 58.026666 58.026667c15.36 0 29.013333-5.12 40.96-17.066667 10.24-10.24 17.066667-25.6 17.066667-40.96 0-30.72-25.6-58.026667-58.026667-58.026666z"  horiz-adv-x="1024" />

    
    <glyph glyph-name="volume" unicode="&#58930;" d="M462.06 753.9L284.12 576H80c-26.52 0-48-21.48-48-48v-288c0-26.5 21.48-48 48-48h204.12l177.94-177.9c30.06-30.06 81.94-8.94 81.94 33.94V719.96c0 42.92-51.92 63.96-81.94 33.94zM992 384c0 127.06-64.12 243.88-171.54 312.48-22.38 14.28-52.06 7.64-66.24-14.92s-7.56-52.42 14.82-66.72C848.54 564.06 896 477.78 896 384s-47.46-180.06-126.96-230.84c-22.38-14.28-29-44.14-14.82-66.72 13.02-20.72 42.24-30.28 66.24-14.92C927.88 140.12 992 256.94 992 384z m-283.54 153.74c-23.16 12.66-52.38 4.32-65.22-18.9-12.78-23.22-4.32-52.4 18.9-65.22C687.96 439.44 704 412.74 704 384c0-28.76-16.04-55.44-41.84-69.62-23.22-12.82-31.68-42-18.9-65.22 12.86-23.32 42.1-31.6 65.22-18.9 56.46 31.1 91.54 90 91.54 153.76s-35.08 122.64-91.56 153.72z"  horiz-adv-x="1024" />

    
    <glyph glyph-name="sub-menu" unicode="&#59035;" d="M830.24 512.64533334l11.328-11.312a16 16 0 0 0 0-22.624L530.448 167.57333333999998a16 16 0 0 0-22.64 0L196.688 478.70933334a16 16 0 0 0 0 22.624l11.312 11.312a16 16 0 0 0 22.624 0l288.496-288.496 288.512 288.496a16 16 0 0 0 22.624 0z"  horiz-adv-x="1024" />

    


  </font>
</defs>
</svg>
