<?xml version="1.0" standalone="no"?><!DOCTYPE svg PUBLIC "-//W3C//DTD SVG 1.1//EN" "http://www.w3.org/Graphics/SVG/1.1/DTD/svg11.dtd"><svg t="1534227703356" class="icon" style="" viewBox="0 0 2713 1024" version="1.1" xmlns="http://www.w3.org/2000/svg" p-id="4223" data-spm-anchor-id="a313x.7781069.0.i2" xmlns:xlink="http://www.w3.org/1999/xlink" width="158.96484375" height="60"><defs><style type="text/css"></style></defs><path d="M983.04 171.52H537.6c-56.32 0-104.96 46.08-104.96 104.96v442.88c0 56.32 46.08 104.96 104.96 104.96h445.44c58.88 0 104.96-46.08 104.96-104.96v-5.12s-168.96-69.12-256-112.64c-56.32 69.12-133.12 112.64-209.92 112.64-130.56 0-174.08-112.64-112.64-189.44 12.8-17.92 35.84-30.72 71.68-40.96 56.32-12.8 143.36 7.68 227.84 35.84 15.36-28.16 28.16-58.88 35.84-89.6H588.8v-25.6h133.12V358.4h-161.28v-25.6h161.28v-66.56s0-10.24 10.24-10.24h64v76.8h158.72v25.6h-158.72v46.08h130.56c-12.8 51.2-30.72 97.28-53.76 135.68 38.4 12.8 74.24 28.16 99.84 35.84 94.72 30.72 115.2 33.28 115.2 33.28v-332.8c-2.56-56.32-48.64-104.96-104.96-104.96z" fill="#2C84C7" p-id="4224"></path><path d="M591.36 524.8c-17.92 2.56-46.08 10.24-64 23.04-51.2 43.52-20.48 122.88 81.92 122.88 58.88 0 117.76-38.4 163.84-97.28-66.56-30.72-120.32-53.76-181.76-48.64z" fill="#2C84C7" p-id="4225"></path><path d="M1638.4 550.4c-53.76-20.48-97.28-40.96-133.12-64 48.64-35.84 92.16-87.04 110.08-151.04h-115.2v-40.96h133.12v-25.6h-133.12v-51.2h-58.88c-7.68 0-12.8 5.12-12.8 12.8v40.96h-133.12v25.6h133.12v40.96h-110.08v25.6h222.72s-12.8 48.64-74.24 99.84c-53.76-40.96-74.24-74.24-74.24-74.24h-58.88c23.04 40.96 58.88 74.24 94.72 102.4-33.28 23.04-76.8 43.52-135.68 58.88v30.72s87.04-17.92 174.08-66.56c84.48 48.64 168.96 66.56 168.96 66.56v-30.72h2.56z m483.84-276.48h186.88v35.84h66.56v-43.52c0-10.24-7.68-17.92-17.92-17.92h-107.52V215.04h-69.12v33.28h-125.44v61.44h66.56v-35.84zM1743.36 624.64h25.6v148.48h-25.6v-148.48z m-353.28 0l-53.76 148.48h28.16l10.24-30.72h53.76l10.24 30.72h28.16l-53.76-148.48h-23.04z m-10.24 99.84l20.48-61.44 20.48 61.44h-40.96z m199.68-99.84h-25.6v148.48h89.6v-20.48h-64v-128z m750.08 0l-28.16 64-30.72-64h-30.72l46.08 87.04v61.44h25.6v-61.44l46.08-87.04H2329.6z m-227.84 0L2048 773.12h28.16l10.24-30.72h53.76l10.24 30.72h28.16L2124.8 624.64h-23.04z m-7.68 99.84l20.48-61.44 20.48 61.44h-40.96z m268.8-230.4c0-5.12-5.12-7.68-10.24-7.68h-56.32l15.36 53.76h-66.56V435.2h128v-25.6h-128v-51.2h128v-25.6H2055.68v25.6h128v51.2h-128v25.6h128v104.96h-128v25.6h330.24l-23.04-71.68zM1715.2 217.6l-69.12 161.28h53.76v194.56h56.32v-256h-20.48l43.52-99.84H1715.2z m148.48 133.12c-2.56-5.12-7.68-7.68-12.8-7.68h-51.2l38.4 122.88h58.88l-33.28-115.2z" fill="#3D3938" p-id="4226"></path><path d="M1989.12 222.72h-58.88v61.44h-148.48v25.6h148.48v222.72c0 5.12-5.12 10.24-10.24 10.24h-30.72v25.6h76.8c12.8 0 23.04-10.24 23.04-23.04v-235.52h23.04v-25.6h-23.04V222.72z m-53.76 401.92h-58.88v148.48h25.6V716.8h30.72c28.16 0 48.64-17.92 48.64-46.08 2.56-25.6-17.92-46.08-46.08-46.08z m-2.56 71.68h-30.72v-51.2h30.72c15.36 0 23.04 12.8 23.04 25.6 2.56 12.8-5.12 25.6-23.04 25.6z" fill="#3D3938" p-id="4227"></path></svg>