<?xml version="1.0" encoding="utf-8"?>
<!-- Generator: Adobe Illustrator 21.0.0, SVG Export Plug-In . SVG Version: 6.00 Build 0)  -->
<svg version="1.1" id="Layer_1" xmlns="http://www.w3.org/2000/svg" xmlns:xlink="http://www.w3.org/1999/xlink" x="0px" y="0px"
	 viewBox="0 0 159 60" style="enable-background:new 0 0 159 60;" xml:space="preserve">
<style type="text/css">
	.st0{fill:#333333;}
	.st1{fill:#12CC0D;}
</style>
<path class="st0" d="M91.4,26h11.3v0.9H91.4L91.4,26 M91.4,29.2h11.3v1.1H91.4L91.4,29.2 M91.7,39.2h10.8v-6.1H91.7V39.2
	 M101.4,38.2h-8.7V34h8.7V38.2 M88.9,20.1c-1,3.6-2.4,6.7-4.3,9.4l0.6,1c0.7-1,1.3-2.1,2-3.3v12h1.1V25.1c0.7-1.4,1.2-2.9,1.7-4.4
	L88.9,20.1 M97.2,22.8l0.8-0.5c-0.1-0.4-0.9-1.8-1.1-2.3L96,20.6c0.3,0.7,0.7,1.3,0.9,1.9c0.1,0.1,0.1,0.2,0.1,0.3h-6.7v1.1h13.6
	v-1.1L97.2,22.8 M71.5,20.4h0.9v5.1h2v-3.6h0.9v4.6h-6.9v-4.6h0.9v3.6h2.1L71.5,20.4 M68.8,28.5H75v0.9h-6.2V28.5 M75.8,34.1
	l-1.6,1.4v-3.9h-5.2v1.5c0.1,2.1-0.4,3.6-1.6,4.6l0.5,1c1.5-1.3,2.2-2.9,2.1-5.1v-0.9h3.3V35c-0.1,0.8-0.1,1.1-0.3,1.5l0.6,1.1
	c0.5-0.4,1.5-1.2,2.8-2.4L75.8,34.1 M67,20.2c-1,2.1-2.2,3.7-3.6,5l0.6,1c1.6-1.6,2.9-3.4,3.9-5.5L67,20.2 M66.9,25.4
	c-0.9,2.4-2.2,4.4-3.7,6.2l0.5,1c0.7-0.7,1.3-1.5,1.8-2.3v8.9h0.9V28.7c0.5-0.9,0.9-1.7,1.3-2.7L66.9,25.4 M83,24.9V24h-4.6
	c0.4-1.2,0.9-2.6,1-3.8h-1c-0.7,3.1-1.7,5.8-3,7.9l0.6,1.1c0.1-0.2,0.3-0.5,0.5-0.9c0.2-0.4,0.4-0.7,0.5-0.9c0.3,2.8,0.9,5,1.7,6.7
	c-0.8,1.3-1.9,2.7-3.4,4l0.6,1c1.7-1.5,2.8-2.8,3.4-4c0.7,1.3,1.8,2.7,3.2,4l0.6-1c-1.4-1.3-2.5-2.7-3.2-4c1.2-2.1,1.9-5.2,2.2-9.3
	H83 M79.2,32.9c-0.7-1.8-1.2-4.1-1.5-7.1c0.1-0.3,0.3-0.7,0.4-0.9h2.8C80.7,28.3,80.1,31,79.2,32.9z M137.6,34.3
	c-0.7-1.4-2.1-3.8-3.3-5.5l0.9-0.5c1.2,1.7,2.7,4,3.3,5.4L137.6,34.3 M124.7,39.1l0.3-0.9c-3.3-0.5-6.1-1.4-8.4-2.8
	c2.5-1.7,4.6-3.9,5.8-6.8l-0.7-0.5l-0.2,0.1h-5.5v-3.8h8.3v-1.1h-8.3v-3.6h-1v3.6h-8.3v1.1h8.3v3.8h-5.6v1c1.2,2.5,3,4.6,5.3,6.2
	c-2.5,1.4-5.4,2.3-8.5,2.9l0.3,1v0.1c3.3-0.7,6.4-1.7,9.1-3.3c2.5,1.6,5.6,2.7,9.1,3.2C124.6,39.1,124.7,39.1,124.7,39.1L124.7,39.1
	z M110.6,29.1H121c-1.2,2.4-3,4.2-5.3,5.7C113.5,33.3,111.7,31.5,110.6,29.1z M132.1,19.9c-1.3,3.4-3.3,6.6-5.4,8.9l0.5,1.1v0.1
	c0.9-0.9,1.7-2,2.6-3.2v12.5h1V25.1c0.9-1.5,1.7-3.2,2.4-4.9L132.1,19.9 M142.7,24.6V20h-1v4.6h-8.9v1.1h8.9v12
	c0,0.5-0.2,0.6-0.7,0.7c-0.4,0-0.8,0.1-1.9,0.1v0.9c1.5,0,2,0,2.6-0.2c0.7-0.2,1-0.5,1-1.5V25.6h2.8v-1.1L142.7,24.6"/>
<path class="st1" d="M27.7,34.3c-0.2,0.1-0.4,0.1-0.6,0.1c-0.5,0-0.9-0.3-1.2-0.7l-0.1-0.2l-3.7-8.1c-0.1-0.1-0.1-0.2-0.1-0.3
	c0-0.4,0.3-0.7,0.7-0.7c0.1,0,0.3,0.1,0.4,0.1l4.4,3.1c0.3,0.2,0.7,0.3,1.1,0.3c0.3,0,0.5-0.1,0.7-0.1l20.5-9.1
	c-3.6-4.3-9.7-7.2-16.6-7.2C22.1,11.7,13,19.2,13,28.6c0,5.1,2.7,9.7,7,12.7c0.3,0.3,0.6,0.7,0.6,1.1c0,0.1,0,0.3-0.1,0.5
	c-0.3,1.3-0.9,3.3-0.9,3.4c-0.1,0.1-0.1,0.3-0.1,0.5c0,0.4,0.3,0.7,0.7,0.7c0.1,0,0.3-0.1,0.4-0.1l4.4-2.6c0.3-0.2,0.7-0.3,1.1-0.3
	c0.2,0,0.4,0,0.6,0.1c2.1,0.6,4.3,0.9,6.6,0.9c11.2,0,20.2-7.5,20.2-16.9c0-2.8-0.9-5.5-2.3-7.8L27.9,34.2L27.7,34.3"/>
</svg>
